<svg xmlns="http://www.w3.org/2000/svg" version="1.1" xmlns:xlink="http://www.w3.org/1999/xlink" xmlns:svgjs="http://svgjs.dev/svgjs" width="1000" height="202" viewBox="0 0 1000 202"><g transform="matrix(1,0,0,1,-0.6060599378191682,0.13848489534984765)"><svg viewBox="0 0 396 80" data-background-color="#ffffff" preserveAspectRatio="xMidYMid meet" height="202" width="1000" xmlns="http://www.w3.org/2000/svg" xmlns:xlink="http://www.w3.org/1999/xlink"><g id="tight-bounds" transform="matrix(1,0,0,1,0.23999977372477588,-0.054845503108850835)"><svg viewBox="0 0 395.52 80.10969100621769" height="80.10969100621769" width="395.52"><g><svg viewBox="0 0 491.8031463851498 99.61113999999999" height="80.10969100621769" width="395.52"><g><svg viewBox="0 0 491.8031463851498 99.61113999999999" height="99.61113999999999" width="491.8031463851498"><g id="textblocktransform"><svg viewBox="0 0 491.8031463851498 99.61113999999999" height="99.61113999999999" width="491.8031463851498" id="textblock"><g><svg viewBox="0 0 491.8031463851498 65.4481" height="65.4481" width="491.8031463851498"><g><svg><g></g><g></g></svg></g><g><svg><g></g><g><svg></svg></g></svg></g><g id="text-0"><svg viewBox="0 0 491.8031463851498 65.4481" height="65.4481" width="491.8031463851498"><g transform="matrix(1,0,0,1,0,12.499049999999997)"><svg width="97.60000000000001" viewBox="3.950000047683716 -39.95000076293945 97.60000610351562 40.45000076293945" height="40.45" data-palette-color="#0718c4"><path d="M30.95-11.3L30.95-8Q30.95-3.95 28.25-1.95L28.25-1.95Q26.95-1 25.58-0.48 24.2 0.05 22.9 0.05L22.9 0.05 12 0.05Q10.7 0.05 9.33-0.48 7.95-1 6.65-1.95L6.65-1.95Q5.35-2.95 4.65-4.42 3.95-5.9 3.95-8L3.95-8 3.95-31.75Q3.95-33.75 4.65-35.27 5.35-36.8 6.65-37.75L6.65-37.75 6.6-37.75Q7.9-38.6 9.3-39.15 10.7-39.7 12-39.7L12-39.7 22.9-39.7Q24.2-39.7 25.6-39.15 27-38.6 28.3-37.75L28.3-37.75 28.25-37.75Q29.55-36.8 30.25-35.27 30.95-33.75 30.95-31.75L30.95-31.75 30.95-28.3Q30.95-25.9 27.95-25.9L27.95-25.9Q25-25.9 25-28.3L25-28.3 25-31.3Q25-32.55 24.25-33.6 23.5-34.65 21.65-34.65L21.65-34.65 13.25-34.65Q11.4-34.65 10.65-33.6 9.9-32.55 9.9-31.3L9.9-31.3 9.9-8.4Q9.9-7.1 10.65-6.05 11.4-5 13.25-5L13.25-5 21.65-5Q23.5-5 24.25-6.05 25-7.1 25-8.4L25-8.4 25-11.3Q25-13.65 27.95-13.65L27.95-13.65Q30.95-13.65 30.95-11.3L30.95-11.3ZM62.35-1.2L51.35-34.8 40.4-1.2 40.4-1.25Q40.1-0.5 39.57-0.03 39.05 0.45 38.3 0.45L38.3 0.45Q37.9 0.45 37.52 0.38 37.15 0.3 36.75 0.2L36.75 0.2 36.8 0.2Q33.95-0.7 34.7-3L34.7-3 46.1-37.65Q46.35-38.45 46.97-39 47.6-39.55 48.45-39.65L48.45-39.65Q49.3-39.8 50.1-39.88 50.9-39.95 51.35-39.95L51.35-39.95Q51.8-39.95 52.6-39.88 53.4-39.8 54.25-39.7L54.25-39.7Q54.95-39.6 55.62-38.95 56.3-38.3 56.65-37.65L56.65-37.65Q59.45-29.05 62.32-20.33 65.2-11.6 68-3L68-3Q68.7-0.7 65.9 0.2L65.9 0.2Q65.5 0.3 65.17 0.38 64.85 0.45 64.45 0.45L64.45 0.45Q63.75 0.45 63.17-0.03 62.6-0.5 62.35-1.25L62.35-1.25 62.35-1.2ZM55.1-12L55.1-12Q55.1-10.4 53.97-9.28 52.85-8.15 51.25-8.15L51.25-8.15Q49.65-8.15 48.55-9.28 47.45-10.4 47.45-12L47.45-12Q47.45-13.6 48.55-14.73 49.65-15.85 51.25-15.85L51.25-15.85Q52.85-15.85 53.97-14.73 55.1-13.6 55.1-12ZM96.09-0.6L86.65-16.45 82.8-16.45Q81.95-16.45 81.47-17.13 81-17.8 81-18.95L81-18.95Q81-21.5 83.09-21.5L83.09-21.5 88.95-21.5Q90.8-21.5 91.55-22.55 92.3-23.6 92.3-24.85L92.3-24.85 92.3-31.3Q92.3-32.55 91.55-33.6 90.8-34.65 88.95-34.65L88.95-34.65 78.4-34.65 78.4-2.05Q78.4 0.35 75.45 0.35L75.45 0.35Q72.5 0.35 72.5-2.05L72.5-2.05 72.5-36.7Q72.5-38.5 73.42-39.1 74.34-39.7 75.65-39.7L75.65-39.7 90.2-39.7Q91.5-39.7 92.9-39.15 94.3-38.6 95.59-37.75L95.59-37.75 95.55-37.75Q96.84-36.8 97.55-35.27 98.25-33.75 98.25-31.75L98.25-31.75 98.25-24.45Q98.25-20.4 95.55-18.4L95.55-18.4Q95-18 94.37-17.65 93.75-17.3 93.09-16.95L93.09-16.95 101.09-3.75Q101.25-3.5 101.4-3.1 101.55-2.7 101.55-2.45L101.55-2.45Q101.55-1.25 99.84-0.15L99.84-0.15 99.84-0.2Q98.7 0.5 97.9 0.5L97.9 0.5Q96.75 0.5 96.05-0.65L96.05-0.65 96.09-0.6Z" opacity="1" transform="matrix(1,0,0,1,0,0)" fill="#0718c4" class="undefined-p-0"></path></svg></g><g><svg xmlns="http://www.w3.org/2000/svg" xmlns:xlink="http://www.w3.org/1999/xlink" version="1.1" x="113.05190000000002" y="0" viewBox="0.04026004672050476 34.641727447509766 99.61673736572266 27.319271087646484" enable-background="new 0 0 100 100" xml:space="preserve" height="65.4481" width="238.64934638514976" class="icon-s-0" data-fill-palette-color="accent" id="s-0"><path fill="#24a8df" d="M72.502 53.293c0-4.788 3.88-8.668 8.667-8.668 4.788 0 8.67 3.88 8.67 8.668 0 4.787-3.882 8.668-8.67 8.668C76.382 61.961 72.502 58.08 72.502 53.293zM76.704 57.895c-0.113-0.098-0.25-0.115-0.322-0.035-0.079 0.086-0.049 0.266 0.062 0.396 1.207 1.438 2.871 2.329 4.707 2.334 1.834-0.005 3.498-0.896 4.703-2.334 0.111-0.13 0.143-0.31 0.062-0.396-0.07-0.08-0.208-0.062-0.323 0.035-1.212 1.104-2.758 1.764-4.446 1.767C79.462 59.657 77.917 58.997 76.704 57.895zM69.303 53.168c-0.881-0.014-1.771-0.02-2.668-0.02-6.992 0-13.527 0.408-19.084 1.113 6.077-0.246 13.713-0.289 21.76 0.319-0.02-0.252-0.025-0.504-0.025-0.759C69.284 53.604 69.289 53.386 69.303 53.168zM63.896 36.096c-8.375-0.817-15.951-0.683-21.05 1.306-3.291 1.282-6.469 2.617-11.126 4.479 7.314 0 28.246 0.049 28.246 0.049 3.854 0 5.079-2.149 5.839-2.138 15.396 0.256 30.123 2.446 33.654 3.005-0.325 1.354-1.797 6.151-5.984 9.98-2.195 2.322 0.61 3.662-0.283 3.818h-2.916c0.375-1.031 0.578-2.145 0.578-3.304 0-5.349-4.336-9.685-9.686-9.685-5.348 0-9.684 4.336-9.684 9.685 0 1.453 0.32 2.832 0.894 4.067-19.646-1.924-37.702 0.371-37.702 0.371l-8.217 1.691c1.367-1.671 2.187-3.805 2.187-6.131 0-5.349-4.335-9.685-9.683-9.685-5.349 0-9.685 4.336-9.685 9.685 0 2.135 0.691 4.109 1.863 5.712C6.264 58.74 2.294 58.45 0.224 57.209c-1.22-0.718 4.154-0.71 0.974-8.258h7.07c0.552 0 1.001-0.45 1.001-1.003v-0.079H0.706c-0.097-0.2-0.198-0.404-0.306-0.613 6.175-4.294 13.646-5.859 22.963-5.859 3.699-0.147 6.614-0.763 9.255-1.574 3.679-1.399 7.489-2.793 9.773-3.588 13.003-4.529 39.9 1.622 57.266 5.717 0 0-0.13 0.591-0.188 0.791-4.923-1.071-18.416-3.701-33.896-4.262-0.046-0.002-0.688-1.126-1.501-2.167C64.016 36.241 63.957 36.167 63.896 36.096zM14.498 57.895c-0.113-0.098-0.251-0.115-0.322-0.035-0.079 0.086-0.048 0.266 0.062 0.396 1.207 1.438 2.871 2.329 4.708 2.334 1.831-0.005 3.495-0.896 4.702-2.334 0.111-0.13 0.143-0.31 0.062-0.396-0.072-0.08-0.209-0.062-0.322 0.035-1.213 1.104-2.758 1.764-4.447 1.767C17.256 59.657 15.712 58.997 14.498 57.895zM10.296 53.293c0-4.788 3.881-8.668 8.668-8.668s8.668 3.88 8.668 8.668c0 4.787-3.881 8.668-8.668 8.668S10.296 58.08 10.296 53.293z" data-fill-palette-color="accent"></path></svg></g><g transform="matrix(1,0,0,1,367.1531463851498,12.49905)"><svg width="124.65000000000002" viewBox="4 -39.95000076293945 124.63999938964844 40" height="40" data-palette-color="#0718c4"><path d="M26.6 0.05L7.15 0.05Q5.3 0.05 4.65-0.9 4-1.85 4-3L4-3 4-37.55Q4-39.95 6.9-39.95L6.9-39.95Q9.9-39.95 9.9-37.55L9.9-37.55 9.9-5 26.6-5Q28.4-5 28.4-2.55L28.4-2.55Q28.5 0.05 26.6 0.05L26.6 0.05ZM41-39.7L51.9-39.7Q53.2-39.7 54.6-39.15 56-38.6 57.3-37.75L57.3-37.75 57.25-37.75Q58.55-36.8 59.25-35.27 59.95-33.75 59.95-31.75L59.95-31.75 59.95-8Q59.95-3.95 57.25-1.95L57.25-1.95Q55.95-1 54.57-0.48 53.2 0.05 51.9 0.05L51.9 0.05 41 0.05Q39.7 0.05 38.32-0.48 36.95-1 35.65-1.95L35.65-1.95Q34.35-2.95 33.65-4.42 32.95-5.9 32.95-8L32.95-8 32.95-31.75Q32.95-33.75 33.65-35.27 34.35-36.8 35.65-37.75L35.65-37.75 35.6-37.75Q36.9-38.6 38.3-39.15 39.7-39.7 41-39.7L41-39.7ZM42.25-5L50.65-5Q52.5-5 53.25-6.05 54-7.1 54-8.4L54-8.4 54-31.3Q54-32.55 53.25-33.6 52.5-34.65 50.65-34.65L50.65-34.65 42.25-34.65Q40.4-34.65 39.65-33.6 38.9-32.55 38.9-31.3L38.9-31.3 38.9-8.4Q38.9-7.1 39.65-6.05 40.4-5 42.25-5L42.25-5ZM88.05-8.4L88.05-18.05Q88.05-20.5 91.05-20.5L91.05-20.5Q94-20.5 94-18.15L94-18.15 94-8Q94-3.95 91.3-1.95L91.3-1.95Q90-1 88.62-0.48 87.25 0.05 85.95 0.05L85.95 0.05 75.55 0.05Q74.25 0.05 72.87-0.48 71.5-1 70.2-1.95L70.2-1.95Q68.9-2.95 68.2-4.42 67.5-5.9 67.5-8L67.5-8 67.5-31.75Q67.5-33.8 68.22-35.3 68.95-36.8 70.2-37.75L70.2-37.75 70.15-37.75Q71.45-38.6 72.84-39.15 74.25-39.7 75.55-39.7L75.55-39.7 85.45-39.7Q86.75-39.7 88.15-39.15 89.55-38.6 90.84-37.75L90.84-37.75 90.8-37.75Q93.45-35.8 93.45-31.75L93.45-31.75 93.45-28.3Q93.45-25.9 90.5-25.9L90.5-25.9Q87.55-25.9 87.55-28.3L87.55-28.3 87.55-31.3Q87.55-32.55 86.8-33.6 86.05-34.65 84.2-34.65L84.2-34.65 76.84-34.65Q74.95-34.65 74.2-33.6 73.45-32.55 73.45-31.3L73.45-31.3 73.45-8.4Q73.45-7.75 73.62-7.15 73.8-6.55 74.2-6.08 74.59-5.6 75.25-5.3 75.9-5 76.84-5L76.84-5 84.7-5Q86.55-5 87.3-6.05 88.05-7.1 88.05-8.4L88.05-8.4ZM85.7-18.6L85.7-18.6Q85.7-17.75 85.37-16.98 85.05-16.2 84.47-15.65 83.9-15.1 83.15-14.78 82.4-14.45 81.5-14.45L81.5-14.45Q79.8-14.45 78.59-15.65 77.4-16.85 77.4-18.6L77.4-18.6Q77.4-20.3 78.59-21.5 79.8-22.7 81.5-22.7L81.5-22.7Q82.4-22.7 83.15-22.38 83.9-22.05 84.47-21.5 85.05-20.95 85.37-20.2 85.7-19.45 85.7-18.6ZM109.69-39.7L120.59-39.7Q121.89-39.7 123.29-39.15 124.69-38.6 125.99-37.75L125.99-37.75 125.94-37.75Q127.24-36.8 127.94-35.27 128.64-33.75 128.64-31.75L128.64-31.75 128.64-8Q128.64-3.95 125.94-1.95L125.94-1.95Q124.64-1 123.27-0.48 121.89 0.05 120.59 0.05L120.59 0.05 109.69 0.05Q108.39 0.05 107.02-0.48 105.64-1 104.34-1.95L104.34-1.95Q103.04-2.95 102.34-4.42 101.64-5.9 101.64-8L101.64-8 101.64-31.75Q101.64-33.75 102.34-35.27 103.04-36.8 104.34-37.75L104.34-37.75 104.29-37.75Q105.59-38.6 106.99-39.15 108.39-39.7 109.69-39.7L109.69-39.7ZM110.94-5L119.34-5Q121.19-5 121.94-6.05 122.69-7.1 122.69-8.4L122.69-8.4 122.69-31.3Q122.69-32.55 121.94-33.6 121.19-34.65 119.34-34.65L119.34-34.65 110.94-34.65Q109.09-34.65 108.34-33.6 107.59-32.55 107.59-31.3L107.59-31.3 107.59-8.4Q107.59-7.1 108.34-6.05 109.09-5 110.94-5L110.94-5Z" opacity="1" transform="matrix(1,0,0,1,0,0)" fill="#0718c4" class="undefined-p-1"></path></svg></g></svg></g></svg></g><g transform="matrix(1,0,0,1,194.44269841943515,74.89114)"><svg viewBox="0 0 102.91774954627947 24.72" height="24.72" width="102.91774954627947"><g transform="matrix(1,0,0,1,0,0)"><svg width="102.91774954627947" viewBox="-11 -26.950000762939453 114.69000244140625 27.55000114440918" height="24.72" data-palette-color="#77d4fc"><path d="M27.75-8.05L26.95-0.55Q24.25 0.6 19.45 0.6 14.65 0.6 12.38-1.43 10.1-3.45 10.1-7.8L10.1-7.8Q10.1-9.75 10.7-13.2L10.7-13.2Q11.95-20.45 15.03-23.7 18.1-26.95 24.85-26.95L24.85-26.95Q29.7-26.95 31.5-25.85L31.5-25.85 28.95-18.9Q26.45-19.6 24.4-19.6 22.35-19.6 21.53-19.25 20.7-18.9 20.5-17.9L20.5-17.9 18.55-7.2Q19.6-6.95 22.18-6.95 24.75-6.95 27.75-8.05L27.75-8.05ZM-11-12.05L8.95-12.05Q8.75-10.5 8.7-9.95L8.7-9.95-11-12.05ZM-10.1-16.85L9.9-16.85 9.45-14.75-10.1-16.85ZM-10.8-7.25L8.65-7.25Q8.65-6.45 8.85-5.15L8.85-5.15-10.8-7.25ZM-8.1-21.65L11.65-21.65Q11.05-20.35 10.8-19.65L10.8-19.65-8.1-21.65ZM-6.45-2.4L9.7-2.4Q10.3-1.2 11-0.55L11-0.55-6.45-2.4ZM-1.4-26.45L16-26.45Q14.8-25.75 13.95-24.8L13.95-24.8-1.4-26.45ZM66.05 0L57.3 0 57.1-4.05 50.8-4.05 49.25 0 40.6 0 51.7-26.45 64.1-26.45 66.05 0ZM53.45-11.2L57.1-11.2 57.1-18.8 56.4-18.8 53.45-11.2ZM39.95-2.4L39-0.2 18.5-2.4 39.95-2.4ZM42-7.25L41.05-5.05 20.55-7.25 42-7.25ZM44-12.05L43.1-9.85 22.6-12.05 44-12.05ZM46.05-16.85L45.1-14.65 24.65-16.85 46.05-16.85ZM48.05-21.65L47.15-19.45 26.7-21.65 48.05-21.65ZM50.05-26.45L49.15-24.3 28.75-26.45 50.05-26.45ZM83.69-26.45L96.39-26.45Q103.69-26.45 103.69-19.85L103.69-19.85Q103.69-16.85 102.5-13.63 101.29-10.4 98.44-8.8L98.44-8.8 101.29 0 91.94 0 90.05-7.7 88.84-7.7 87.5 0 79.09 0 83.69-26.45ZM94.25-16.05L94.55-17.8Q94.55-17.85 94.59-18.3L94.59-18.3Q94.59-19.15 91.94-19.15L91.94-19.15 90.84-19.15 90.05-14.55 91.64-14.55Q93.94-14.55 94.25-16.05L94.25-16.05ZM77.84-2.4L77.44-0.15 56.24-2.4 77.84-2.4ZM79.55-12.05L79.14-9.8 57.94-12.05 79.55-12.05ZM80.39-16.85L80-14.6 58.79-16.85 80.39-16.85ZM81.25-21.65L80.84-19.4 59.64-21.65 81.25-21.65ZM82.05-26.45L81.69-24.2 60.49-26.45 82.05-26.45ZM78.69-7.25L78.3-5 57.09-7.25 78.69-7.25Z" opacity="1" transform="matrix(1,0,0,1,0,0)" fill="#77d4fc" class="slogan-text-1" data-fill-palette-color="secondary" id="text-1"></path></svg></g></svg></g></svg></g></svg></g></svg></g><defs></defs></svg><rect width="395.52" height="80.10969100621769" fill="none" stroke="none" visibility="hidden"></rect></g></svg></g></svg>